<?xml version="1.0" encoding="UTF-8"?>
<!DOCTYPE svg PUBLIC "-//W3C//DTD SVG 1.1//EN" "http://www.w3.org/Graphics/SVG/1.1/DTD/svg11.dtd">
<!-- Creator: CorelDRAW 2018 (64-Bit) -->
<svg xmlns="http://www.w3.org/2000/svg" xml:space="preserve" width="140px" height="140px" version="1.1" style="shape-rendering:geometricPrecision; text-rendering:geometricPrecision; image-rendering:optimizeQuality; fill-rule:evenodd; clip-rule:evenodd"
viewBox="0 0 107.47 107.47"
 xmlns:xlink="http://www.w3.org/1999/xlink">
 <defs>
  <style type="text/css">
   <![CDATA[
    .str1 {stroke:black;stroke-width:1.34;stroke-miterlimit:22.9256}
    .str0 {stroke:#F2F2F2;stroke-width:1.34;stroke-miterlimit:22.9256}
    .fil18 {fill:none}
    .fil9 {fill:#0094BB}
    .fil7 {fill:lime}
    .fil6 {fill:#1EBED2}
    .fil5 {fill:#364B59}
    .fil1 {fill:#59BAD3}
    .fil14 {fill:#688AE8}
    .fil12 {fill:#6B58B2}
    .fil17 {fill:#8BC470}
    .fil16 {fill:#8FB7BF}
    .fil15 {fill:#AE4C54}
    .fil0 {fill:#E6E6E6}
    .fil13 {fill:#EE962C}
    .fil2 {fill:#EE962C}
    .fil11 {fill:#F2421B}
    .fil3 {fill:#F4CC53}
    .fil4 {fill:#FBEBBC}
    .fil8 {fill:red}
    .fil10 {fill:black;fill-rule:nonzero}
    .fil19 {fill:#364B59;fill-rule:nonzero}
   ]]>
  </style>
     <clipPath id="id0">
      <path d="M28.36 10.29l50.75 0c5.33,0 9.69,4.36 9.69,9.68l0 50.76c0,5.33 -4.36,9.69 -9.69,9.69l-50.75 0c-5.33,0 -9.69,-4.36 -9.69,-9.69l0 -50.76c0,-5.32 4.36,-9.68 9.69,-9.68z"/>
     </clipPath>
 </defs>
 <g id="Layer_x0020_1">
  <metadata id="CorelCorpID_0Corel-Layer"/>
  <g id="_1599385889808">
   <g>
    <path class="fil0" d="M28.36 10.29l50.75 0c5.33,0 9.69,4.36 9.69,9.68l0 50.76c0,5.33 -4.36,9.69 -9.69,9.69l-50.75 0c-5.33,0 -9.69,-4.36 -9.69,-9.69l0 -50.76c0,-5.32 4.36,-9.68 9.69,-9.68z"/>
    <g style="clip-path:url(#id0)">
     <g>
      <rect class="fil1" x="-32.93" y="-8.32" width="183.8" height="105.39"/>
      <rect class="fil2" x="46.72" y="-24.35" width="112.05" height="105.39"/>
      <circle class="fil3" cx="88.8" cy="80.42" r="59.64"/>
      <circle class="fil4" cx="88.8" cy="80.42" r="50.7"/>
      <rect class="fil5" transform="matrix(1.63685E-15 -0.0811091 0.0560099 1.94675E-15 58.3852 85.0863)" width="110.3" height="543"/>
      <rect class="fil5" x="84.33" y="44.2" width="8.95" height="36.22"/>
      <rect class="fil6 str0" x="-93.06" y="43.43" width="43.3" height="5.2"/>
      <g>
       <rect class="fil7 str1" x="-61.98" y="116.47" width="42.08" height="25.86"/>
       <rect class="fil8 str1" x="-90.04" y="116.47" width="28.05" height="25.86"/>
      </g>
      <g>
       <g>
        <circle class="fil9" cx="-64.91" cy="64.38" r="0.69"/>
        <path class="fil10" d="M-62.32 64.68c0,0.13 -0.05,0.23 -0.14,0.3 -0.1,0.08 -0.23,0.11 -0.39,0.11 -0.18,0 -0.32,-0.02 -0.41,-0.06l0 -0.17c0.06,0.02 0.13,0.04 0.2,0.06 0.07,0.01 0.14,0.02 0.21,0.02 0.12,0 0.21,-0.02 0.27,-0.06 0.05,-0.05 0.08,-0.11 0.08,-0.19 0,-0.05 -0.01,-0.09 -0.03,-0.12 -0.02,-0.04 -0.05,-0.07 -0.1,-0.1 -0.05,-0.02 -0.12,-0.06 -0.22,-0.09 -0.14,-0.05 -0.24,-0.11 -0.3,-0.18 -0.06,-0.06 -0.09,-0.15 -0.09,-0.26 0,-0.12 0.04,-0.21 0.13,-0.28 0.09,-0.07 0.2,-0.1 0.34,-0.1 0.15,0 0.29,0.03 0.41,0.08l-0.05 0.15c-0.13,-0.05 -0.25,-0.08 -0.36,-0.08 -0.09,0 -0.17,0.02 -0.22,0.06 -0.05,0.04 -0.08,0.1 -0.08,0.17 0,0.05 0.01,0.09 0.03,0.13 0.02,0.03 0.05,0.06 0.1,0.09 0.04,0.02 0.11,0.05 0.21,0.09 0.15,0.05 0.26,0.11 0.32,0.18 0.06,0.06 0.09,0.14 0.09,0.25z"/>
        <path id="1" class="fil10" d="M-61.68 64.95c0.03,0 0.06,0 0.09,0 0.03,-0.01 0.05,-0.01 0.06,-0.02l0 0.13c-0.01,0.01 -0.04,0.02 -0.08,0.03 -0.03,0 -0.07,0 -0.09,0 -0.22,0 -0.33,-0.11 -0.33,-0.34l0 -0.66 -0.16 0 0 -0.09 0.16 -0.07 0.07 -0.23 0.1 0 0 0.25 0.33 0 0 0.14 -0.33 0 0 0.65c0,0.07 0.02,0.12 0.05,0.16 0.03,0.04 0.07,0.05 0.13,0.05z"/>
        <path id="2" class="fil10" d="M-60.83 65.09c-0.17,0 -0.3,-0.05 -0.39,-0.15 -0.1,-0.1 -0.15,-0.24 -0.15,-0.42 0,-0.18 0.05,-0.32 0.14,-0.43 0.09,-0.1 0.21,-0.16 0.36,-0.16 0.14,0 0.25,0.05 0.33,0.14 0.08,0.09 0.12,0.22 0.12,0.37l0 0.1 -0.77 0c0,0.14 0.04,0.24 0.1,0.3 0.06,0.07 0.15,0.11 0.27,0.11 0.12,0 0.24,-0.03 0.35,-0.08l0 0.15c-0.06,0.03 -0.11,0.05 -0.17,0.06 -0.05,0.01 -0.11,0.01 -0.19,0.01zm-0.05 -1.01c-0.09,0 -0.16,0.02 -0.21,0.08 -0.05,0.06 -0.09,0.14 -0.1,0.25l0.59 0c0,-0.11 -0.02,-0.19 -0.07,-0.25 -0.05,-0.06 -0.12,-0.08 -0.21,-0.08z"/>
        <path id="3" class="fil10" d="M-58.92 64.09l-0.28 0 0 0.98 -0.17 0 0 -0.98 -0.2 0 0 -0.08 0.2 -0.06 0 -0.06c0,-0.28 0.12,-0.42 0.36,-0.42 0.06,0 0.13,0.02 0.21,0.04l-0.05 0.14c-0.06,-0.03 -0.12,-0.04 -0.16,-0.04 -0.07,0 -0.11,0.03 -0.15,0.07 -0.03,0.04 -0.04,0.11 -0.04,0.2l0 0.07 0.28 0 0 0.14zm-0.71 0l-0.28 0 0 0.98 -0.17 0 0 -0.98 -0.2 0 0 -0.08 0.2 -0.06 0 -0.06c0,-0.28 0.12,-0.42 0.36,-0.42 0.06,0 0.13,0.02 0.21,0.04l-0.05 0.14c-0.06,-0.03 -0.12,-0.04 -0.16,-0.04 -0.07,0 -0.11,0.03 -0.14,0.07 -0.03,0.04 -0.05,0.11 -0.05,0.2l0 0.07 0.28 0 0 0.14z"/>
        <path id="4" class="fil10" d="M-58.24 65.09c-0.17,0 -0.3,-0.05 -0.39,-0.15 -0.1,-0.1 -0.14,-0.24 -0.14,-0.42 0,-0.18 0.04,-0.32 0.13,-0.43 0.09,-0.1 0.21,-0.16 0.36,-0.16 0.14,0 0.25,0.05 0.33,0.14 0.08,0.09 0.12,0.22 0.12,0.37l0 0.1 -0.77 0c0.01,0.14 0.04,0.24 0.1,0.3 0.06,0.07 0.15,0.11 0.27,0.11 0.12,0 0.24,-0.03 0.35,-0.08l0 0.15c-0.06,0.03 -0.11,0.05 -0.17,0.06 -0.05,0.01 -0.11,0.01 -0.19,0.01zm-0.05 -1.01c-0.08,0 -0.16,0.02 -0.21,0.08 -0.05,0.06 -0.08,0.14 -0.09,0.25l0.58 0c0,-0.11 -0.02,-0.19 -0.07,-0.25 -0.05,-0.06 -0.12,-0.08 -0.21,-0.08z"/>
        <path id="5" class="fil10" d="M-56.77 65.07l0 -0.72c0,-0.09 -0.02,-0.16 -0.07,-0.2 -0.04,-0.05 -0.1,-0.07 -0.19,-0.07 -0.12,0 -0.2,0.03 -0.26,0.09 -0.05,0.07 -0.08,0.17 -0.08,0.32l0 0.58 -0.17 0 0 -1.12 0.14 0 0.03 0.16 0.01 0c0.03,-0.06 0.08,-0.1 0.14,-0.13 0.06,-0.03 0.13,-0.05 0.21,-0.05 0.14,0 0.24,0.04 0.3,0.1 0.07,0.07 0.11,0.17 0.11,0.31l0 0.73 -0.17 0z"/>
       </g>
       <g>
        <circle class="fil11" cx="-53.85" cy="64.38" r="0.69"/>
        <path class="fil10" d="M-50.8 65.07l-0.17 0 -0.3 -1c-0.02,-0.04 -0.03,-0.1 -0.05,-0.16 -0.02,-0.07 -0.03,-0.11 -0.03,-0.13 -0.01,0.09 -0.03,0.19 -0.07,0.3l-0.29 0.99 -0.17 0 -0.4 -1.49 0.19 0 0.23 0.92c0.03,0.13 0.06,0.25 0.07,0.35 0.02,-0.12 0.05,-0.24 0.08,-0.36l0.27 -0.91 0.19 0 0.28 0.92c0.03,0.1 0.06,0.22 0.08,0.35 0.01,-0.09 0.04,-0.21 0.07,-0.35l0.24 -0.92 0.18 0 -0.4 1.49z"/>
        <path id="1" class="fil10" d="M-49.27 64.51c0,0.19 -0.04,0.33 -0.13,0.43 -0.1,0.1 -0.22,0.15 -0.38,0.15 -0.11,0 -0.19,-0.02 -0.27,-0.07 -0.08,-0.04 -0.14,-0.11 -0.18,-0.2 -0.04,-0.09 -0.06,-0.19 -0.06,-0.31 0,-0.18 0.04,-0.32 0.13,-0.42 0.09,-0.11 0.22,-0.16 0.38,-0.16 0.16,0 0.28,0.06 0.38,0.16 0.09,0.1 0.13,0.25 0.13,0.42zm-0.85 0c0,0.15 0.03,0.26 0.09,0.33 0.05,0.07 0.14,0.11 0.25,0.11 0.11,0 0.19,-0.04 0.25,-0.11 0.06,-0.07 0.09,-0.18 0.09,-0.33 0,-0.14 -0.03,-0.25 -0.09,-0.32 -0.06,-0.07 -0.14,-0.11 -0.25,-0.11 -0.11,0 -0.2,0.03 -0.25,0.11 -0.06,0.07 -0.09,0.18 -0.09,0.32z"/>
        <polygon id="2" class="fil10" points="-48.8,65.07 -48.97,65.07 -48.97,63.48 -48.8,63.48 "/>
        <path id="3" class="fil10" d="M-47.94 64.09l-0.28 0 0 0.98 -0.17 0 0 -0.98 -0.2 0 0 -0.08 0.2 -0.06 0 -0.06c0,-0.28 0.12,-0.42 0.36,-0.42 0.06,0 0.13,0.02 0.21,0.04l-0.05 0.14c-0.06,-0.03 -0.12,-0.04 -0.16,-0.04 -0.07,0 -0.11,0.03 -0.14,0.07 -0.04,0.04 -0.05,0.11 -0.05,0.2l0 0.07 0.28 0 0 0.14z"/>
        <path id="4" class="fil10" d="M-46.82 63.95l0 0.11 -0.2 0.03c0.02,0.02 0.03,0.05 0.05,0.09 0.01,0.04 0.02,0.08 0.02,0.13 0,0.11 -0.04,0.2 -0.11,0.26 -0.08,0.07 -0.18,0.1 -0.31,0.1 -0.03,0 -0.06,0 -0.09,-0.01 -0.08,0.04 -0.11,0.09 -0.11,0.15 0,0.03 0.01,0.05 0.04,0.06 0.02,0.02 0.06,0.03 0.13,0.03l0.19 0c0.12,0 0.22,0.02 0.28,0.07 0.07,0.05 0.1,0.13 0.1,0.22 0,0.13 -0.05,0.22 -0.15,0.29 -0.1,0.06 -0.24,0.1 -0.43,0.1 -0.15,0 -0.26,-0.03 -0.34,-0.09 -0.08,-0.05 -0.12,-0.13 -0.12,-0.23 0,-0.06 0.02,-0.12 0.06,-0.17 0.05,-0.05 0.11,-0.09 0.19,-0.1 -0.03,-0.02 -0.06,-0.04 -0.07,-0.06 -0.02,-0.03 -0.03,-0.06 -0.03,-0.1 0,-0.04 0.01,-0.08 0.03,-0.11 0.02,-0.03 0.05,-0.06 0.1,-0.09 -0.06,-0.02 -0.1,-0.06 -0.14,-0.12 -0.04,-0.05 -0.05,-0.12 -0.05,-0.19 0,-0.13 0.03,-0.22 0.11,-0.29 0.07,-0.06 0.17,-0.1 0.31,-0.1 0.06,0 0.11,0.01 0.16,0.02l0.38 0zm-0.89 1.31c0,0.06 0.03,0.11 0.08,0.14 0.05,0.03 0.12,0.05 0.22,0.05 0.14,0 0.25,-0.03 0.31,-0.07 0.07,-0.04 0.11,-0.1 0.11,-0.17 0,-0.06 -0.02,-0.1 -0.06,-0.13 -0.04,-0.02 -0.11,-0.03 -0.21,-0.03l-0.2 0c-0.08,0 -0.14,0.02 -0.18,0.05 -0.05,0.04 -0.07,0.09 -0.07,0.16zm0.09 -0.95c0,0.08 0.03,0.14 0.07,0.18 0.04,0.04 0.11,0.06 0.18,0.06 0.17,0 0.25,-0.08 0.25,-0.24 0,-0.17 -0.08,-0.25 -0.25,-0.25 -0.08,0 -0.14,0.02 -0.18,0.06 -0.05,0.04 -0.07,0.11 -0.07,0.19z"/>
        <path id="5" class="fil10" d="M-45.9 65.07l-0.03 -0.16 -0.01 0c-0.06,0.07 -0.11,0.12 -0.17,0.15 -0.05,0.02 -0.12,0.03 -0.21,0.03 -0.11,0 -0.19,-0.02 -0.26,-0.08 -0.06,-0.06 -0.09,-0.14 -0.09,-0.25 0,-0.22 0.18,-0.34 0.54,-0.35l0.19 -0.01 0 -0.07c0,-0.08 -0.02,-0.15 -0.06,-0.19 -0.03,-0.04 -0.09,-0.06 -0.18,-0.06 -0.09,0 -0.19,0.02 -0.31,0.08l-0.05 -0.13c0.05,-0.03 0.11,-0.05 0.18,-0.07 0.06,-0.02 0.13,-0.02 0.19,-0.02 0.14,0 0.24,0.03 0.3,0.08 0.07,0.06 0.1,0.16 0.1,0.29l0 0.76 -0.13 0zm-0.38 -0.12c0.1,0 0.19,-0.02 0.25,-0.08 0.06,-0.06 0.09,-0.14 0.09,-0.25l0 -0.1 -0.17 0.01c-0.14,0.01 -0.23,0.03 -0.29,0.06 -0.06,0.04 -0.09,0.1 -0.09,0.18 0,0.06 0.02,0.1 0.05,0.14 0.04,0.03 0.09,0.04 0.16,0.04z"/>
        <path id="6" class="fil10" d="M-44.66 65.07l0 -0.72c0,-0.09 -0.02,-0.16 -0.06,-0.2 -0.04,-0.05 -0.11,-0.07 -0.19,-0.07 -0.12,0 -0.21,0.03 -0.26,0.09 -0.06,0.07 -0.08,0.17 -0.08,0.32l0 0.58 -0.17 0 0 -1.12 0.13 0 0.03 0.16 0.01 0c0.04,-0.06 0.08,-0.1 0.15,-0.13 0.06,-0.03 0.13,-0.05 0.21,-0.05 0.13,0 0.23,0.04 0.3,0.1 0.07,0.07 0.1,0.17 0.1,0.31l0 0.73 -0.17 0z"/>
        <path id="7" class="fil10" d="M-43.22 63.95l0 0.11 -0.21 0.03c0.02,0.02 0.04,0.05 0.05,0.09 0.02,0.04 0.02,0.08 0.02,0.13 0,0.11 -0.03,0.2 -0.11,0.26 -0.07,0.07 -0.18,0.1 -0.31,0.1 -0.03,0 -0.06,0 -0.09,-0.01 -0.07,0.04 -0.11,0.09 -0.11,0.15 0,0.03 0.01,0.05 0.04,0.06 0.02,0.02 0.07,0.03 0.13,0.03l0.2 0c0.12,0 0.21,0.02 0.27,0.07 0.07,0.05 0.1,0.13 0.1,0.22 0,0.13 -0.05,0.22 -0.15,0.29 -0.1,0.06 -0.24,0.1 -0.43,0.1 -0.15,0 -0.26,-0.03 -0.34,-0.09 -0.08,-0.05 -0.12,-0.13 -0.12,-0.23 0,-0.06 0.02,-0.12 0.07,-0.17 0.04,-0.05 0.1,-0.09 0.18,-0.1 -0.03,-0.02 -0.05,-0.04 -0.07,-0.06 -0.02,-0.03 -0.03,-0.06 -0.03,-0.1 0,-0.04 0.01,-0.08 0.03,-0.11 0.02,-0.03 0.06,-0.06 0.1,-0.09 -0.05,-0.02 -0.1,-0.06 -0.14,-0.12 -0.03,-0.05 -0.05,-0.12 -0.05,-0.19 0,-0.13 0.03,-0.22 0.11,-0.29 0.07,-0.06 0.18,-0.1 0.31,-0.1 0.06,0 0.11,0.01 0.16,0.02l0.39 0zm-0.9 1.31c0,0.06 0.03,0.11 0.08,0.14 0.05,0.03 0.12,0.05 0.22,0.05 0.14,0 0.25,-0.03 0.32,-0.07 0.06,-0.04 0.1,-0.1 0.1,-0.17 0,-0.06 -0.02,-0.1 -0.06,-0.13 -0.04,-0.02 -0.11,-0.03 -0.21,-0.03l-0.2 0c-0.08,0 -0.14,0.02 -0.18,0.05 -0.05,0.04 -0.07,0.09 -0.07,0.16zm0.1 -0.95c0,0.08 0.02,0.14 0.06,0.18 0.05,0.04 0.11,0.06 0.19,0.06 0.16,0 0.24,-0.08 0.24,-0.24 0,-0.17 -0.08,-0.25 -0.25,-0.25 -0.08,0 -0.14,0.02 -0.18,0.06 -0.04,0.04 -0.06,0.11 -0.06,0.19z"/>
       </g>
       <g>
        <circle class="fil12" cx="-40.63" cy="64.38" r="0.69"/>
        <path class="fil10" d="M-37.58 65.07l-0.17 0 -0.3 -1c-0.02,-0.04 -0.03,-0.1 -0.05,-0.16 -0.02,-0.07 -0.03,-0.11 -0.03,-0.13 -0.01,0.09 -0.04,0.19 -0.07,0.3l-0.29 0.99 -0.17 0 -0.4 -1.49 0.18 0 0.24 0.92c0.03,0.13 0.06,0.25 0.07,0.35 0.02,-0.12 0.05,-0.24 0.08,-0.36l0.27 -0.91 0.18 0 0.29 0.92c0.03,0.1 0.06,0.22 0.08,0.35 0.01,-0.09 0.04,-0.21 0.07,-0.35l0.24 -0.92 0.18 0 -0.4 1.49z"/>
        <path id="1" class="fil10" d="M-36.8 65.07l-0.17 0 0 -1.12 0.17 0 0 1.12zm-0.19 -1.42c0,-0.04 0.01,-0.07 0.03,-0.08 0.02,-0.02 0.05,-0.03 0.07,-0.03 0.03,0 0.06,0.01 0.07,0.03 0.02,0.01 0.03,0.04 0.03,0.08 0,0.04 -0.01,0.07 -0.03,0.09 -0.01,0.01 -0.04,0.02 -0.07,0.02 -0.02,0 -0.05,-0.01 -0.07,-0.02 -0.02,-0.02 -0.03,-0.05 -0.03,-0.09z"/>
        <polygon id="2" class="fil10" points="-36.27,65.07 -36.44,65.07 -36.44,63.48 -36.27,63.48 "/>
        <path id="3" class="fil10" d="M-35.41 64.09l-0.28 0 0 0.98 -0.17 0 0 -0.98 -0.2 0 0 -0.08 0.2 -0.06 0 -0.06c0,-0.28 0.12,-0.42 0.36,-0.42 0.06,0 0.13,0.02 0.21,0.04l-0.05 0.14c-0.06,-0.03 -0.12,-0.04 -0.17,-0.04 -0.06,0 -0.11,0.03 -0.14,0.07 -0.03,0.04 -0.04,0.11 -0.04,0.2l0 0.07 0.28 0 0 0.14z"/>
        <path id="4" class="fil10" d="M-34.69 63.93c0.05,0 0.09,0.01 0.13,0.02l-0.02 0.15c-0.05,-0.01 -0.09,-0.01 -0.13,-0.01 -0.09,0 -0.16,0.04 -0.23,0.11 -0.06,0.07 -0.09,0.16 -0.09,0.27l0 0.6 -0.18 0 0 -1.12 0.15 0 0.01 0.21 0.01 0c0.04,-0.07 0.09,-0.13 0.15,-0.17 0.06,-0.04 0.13,-0.06 0.2,-0.06z"/>
        <path id="5" class="fil10" d="M-34.18 65.07l-0.17 0 0 -1.12 0.17 0 0 1.12zm-0.19 -1.42c0,-0.04 0.01,-0.07 0.03,-0.08 0.02,-0.02 0.05,-0.03 0.07,-0.03 0.03,0 0.06,0.01 0.08,0.03 0.02,0.01 0.03,0.04 0.03,0.08 0,0.04 -0.01,0.07 -0.03,0.09 -0.02,0.01 -0.05,0.02 -0.08,0.02 -0.02,0 -0.05,-0.01 -0.07,-0.02 -0.02,-0.02 -0.03,-0.05 -0.03,-0.09z"/>
        <path id="6" class="fil10" d="M-33.35 65.09c-0.16,0 -0.3,-0.05 -0.39,-0.15 -0.1,-0.1 -0.14,-0.24 -0.14,-0.42 0,-0.18 0.04,-0.32 0.13,-0.43 0.09,-0.1 0.21,-0.16 0.36,-0.16 0.14,0 0.25,0.05 0.33,0.14 0.08,0.09 0.12,0.22 0.12,0.37l0 0.1 -0.77 0c0,0.14 0.04,0.24 0.1,0.3 0.06,0.07 0.15,0.11 0.27,0.11 0.12,0 0.24,-0.03 0.35,-0.08l0 0.15c-0.06,0.03 -0.11,0.05 -0.17,0.06 -0.05,0.01 -0.11,0.01 -0.19,0.01zm-0.05 -1.01c-0.09,0 -0.16,0.02 -0.21,0.08 -0.05,0.06 -0.09,0.14 -0.09,0.25l0.58 0c0,-0.11 -0.02,-0.19 -0.07,-0.25 -0.05,-0.06 -0.12,-0.08 -0.21,-0.08z"/>
        <path id="7" class="fil10" d="M-31.89 64.92l-0.01 0c-0.07,0.12 -0.19,0.17 -0.35,0.17 -0.14,0 -0.26,-0.05 -0.34,-0.15 -0.08,-0.1 -0.12,-0.24 -0.12,-0.42 0,-0.19 0.04,-0.33 0.12,-0.43 0.08,-0.11 0.2,-0.16 0.34,-0.16 0.15,0 0.27,0.06 0.35,0.17l0.02 0 -0.01 -0.08 -0.01 -0.08 0 -0.46 0.17 0 0 1.59 -0.13 0 -0.03 -0.15zm-0.34 0.03c0.12,0 0.2,-0.03 0.26,-0.09 0.05,-0.07 0.07,-0.17 0.07,-0.31l0 -0.03c0,-0.16 -0.02,-0.27 -0.07,-0.34 -0.06,-0.07 -0.14,-0.1 -0.26,-0.1 -0.1,0 -0.17,0.03 -0.23,0.11 -0.05,0.08 -0.08,0.19 -0.08,0.33 0,0.14 0.03,0.25 0.08,0.32 0.06,0.08 0.13,0.11 0.23,0.11z"/>
       </g>
       <g>
        <circle class="fil13" cx="-64.91" cy="67.41" r="0.69"/>
        <path class="fil10" d="M-62.23 68.1l-0.18 -0.47 -0.6 0 -0.18 0.47 -0.18 0 0.59 -1.5 0.15 0 0.59 1.5 -0.19 0zm-0.23 -0.63l-0.18 -0.46c-0.02,-0.06 -0.04,-0.13 -0.07,-0.22 -0.01,0.07 -0.03,0.14 -0.06,0.22l-0.18 0.46 0.49 0z"/>
        <polygon id="1" class="fil10" points="-61.7,68.1 -61.87,68.1 -61.87,66.51 -61.7,66.51 "/>
        <path id="2" class="fil10" d="M-60.86 68.12c-0.17,0 -0.3,-0.05 -0.4,-0.15 -0.09,-0.1 -0.14,-0.24 -0.14,-0.42 0,-0.18 0.05,-0.32 0.13,-0.43 0.09,-0.1 0.21,-0.16 0.36,-0.16 0.14,0 0.25,0.05 0.34,0.14 0.08,0.1 0.12,0.22 0.12,0.37l0 0.1 -0.77 0c0,0.14 0.03,0.24 0.1,0.3 0.06,0.07 0.15,0.11 0.26,0.11 0.12,0 0.24,-0.03 0.36,-0.08l0 0.15c-0.06,0.03 -0.12,0.05 -0.17,0.06 -0.05,0.01 -0.12,0.01 -0.19,0.01zm-0.05 -1.01c-0.09,0 -0.16,0.03 -0.21,0.08 -0.06,0.06 -0.09,0.14 -0.1,0.25l0.59 0c0,-0.11 -0.03,-0.19 -0.08,-0.25 -0.04,-0.06 -0.11,-0.08 -0.2,-0.08z"/>
        <polygon id="3" class="fil10" points="-59.94,67.53 -60.32,66.99 -60.13,66.99 -59.84,67.41 -59.54,66.99 -59.35,66.99 -59.74,67.53 -59.33,68.1 -59.52,68.1 -59.84,67.65 -60.15,68.1 -60.35,68.1 "/>
       </g>
       <g>
        <circle class="fil14" cx="-56.36" cy="67.41" r="0.69"/>
        <path class="fil10" d="M-53.96 67.32l0.51 0 0 0.73c-0.08,0.02 -0.16,0.04 -0.24,0.06 -0.08,0.01 -0.18,0.01 -0.28,0.01 -0.23,0 -0.41,-0.06 -0.53,-0.2 -0.13,-0.13 -0.19,-0.32 -0.19,-0.56 0,-0.16 0.03,-0.29 0.09,-0.41 0.07,-0.12 0.16,-0.21 0.27,-0.27 0.12,-0.06 0.26,-0.09 0.41,-0.09 0.16,0 0.31,0.03 0.45,0.09l-0.07 0.15c-0.13,-0.06 -0.26,-0.08 -0.39,-0.08 -0.18,0 -0.32,0.05 -0.42,0.16 -0.11,0.11 -0.16,0.26 -0.16,0.45 0,0.2 0.05,0.35 0.15,0.46 0.1,0.1 0.24,0.15 0.44,0.15 0.1,0 0.2,-0.01 0.3,-0.03l0 -0.46 -0.34 0 0 -0.16z"/>
        <path id="1" class="fil10" d="M-52.35 68.1l0 -0.72c0,-0.09 -0.02,-0.16 -0.06,-0.2 -0.04,-0.05 -0.11,-0.07 -0.2,-0.07 -0.11,0 -0.2,0.03 -0.25,0.09 -0.06,0.07 -0.09,0.17 -0.09,0.32l0 0.58 -0.17 0 0 -1.11 0.14 0 0.03 0.15 0.01 0c0.03,-0.06 0.08,-0.1 0.14,-0.13 0.07,-0.03 0.14,-0.05 0.21,-0.05 0.14,0 0.24,0.04 0.31,0.1 0.07,0.07 0.1,0.17 0.1,0.31l0 0.73 -0.17 0z"/>
        <path id="2" class="fil10" d="M-51.14 68.1l-0.04 -0.15 -0.01 0c-0.05,0.06 -0.11,0.11 -0.16,0.14 -0.06,0.02 -0.13,0.03 -0.21,0.03 -0.11,0 -0.2,-0.02 -0.26,-0.08 -0.06,-0.06 -0.1,-0.14 -0.1,-0.25 0,-0.22 0.18,-0.34 0.55,-0.35l0.19 -0.01 0 -0.07c0,-0.08 -0.02,-0.15 -0.06,-0.19 -0.04,-0.04 -0.1,-0.06 -0.18,-0.06 -0.1,0 -0.2,0.03 -0.32,0.08l-0.05 -0.13c0.05,-0.03 0.12,-0.05 0.18,-0.07 0.07,-0.02 0.13,-0.02 0.2,-0.02 0.13,0 0.23,0.03 0.29,0.09 0.07,0.05 0.1,0.15 0.1,0.28l0 0.76 -0.12 0zm-0.39 -0.11c0.11,0 0.19,-0.03 0.25,-0.09 0.06,-0.06 0.09,-0.14 0.09,-0.24l0 -0.11 -0.17 0.01c-0.13,0.01 -0.23,0.03 -0.29,0.06 -0.06,0.04 -0.09,0.1 -0.09,0.18 0,0.06 0.02,0.1 0.06,0.14 0.03,0.03 0.09,0.05 0.15,0.05z"/>
        <path id="3" class="fil10" d="M-49.95 67.8c0,0.1 -0.04,0.18 -0.11,0.24 -0.08,0.06 -0.19,0.08 -0.33,0.08 -0.15,0 -0.26,-0.02 -0.35,-0.07l0 -0.15c0.06,0.02 0.11,0.05 0.18,0.06 0.06,0.02 0.12,0.03 0.17,0.03 0.09,0 0.16,-0.02 0.21,-0.05 0.05,-0.03 0.07,-0.07 0.07,-0.13 0,-0.04 -0.02,-0.08 -0.06,-0.11 -0.04,-0.03 -0.11,-0.07 -0.22,-0.11 -0.1,-0.04 -0.18,-0.07 -0.22,-0.1 -0.04,-0.03 -0.08,-0.06 -0.1,-0.1 -0.02,-0.04 -0.03,-0.08 -0.03,-0.13 0,-0.09 0.04,-0.16 0.11,-0.22 0.07,-0.05 0.18,-0.08 0.31,-0.08 0.12,0 0.23,0.03 0.35,0.08l-0.06 0.14c-0.11,-0.05 -0.22,-0.07 -0.31,-0.07 -0.08,0 -0.14,0.01 -0.18,0.03 -0.04,0.03 -0.06,0.06 -0.06,0.11 0,0.03 0.01,0.05 0.02,0.08 0.02,0.02 0.04,0.04 0.08,0.06 0.03,0.01 0.1,0.04 0.19,0.08 0.14,0.05 0.23,0.09 0.27,0.14 0.05,0.05 0.07,0.11 0.07,0.19z"/>
        <path id="4" class="fil10" d="M-49.2 68.12c-0.16,0 -0.3,-0.05 -0.39,-0.15 -0.1,-0.1 -0.14,-0.24 -0.14,-0.42 0,-0.18 0.04,-0.32 0.13,-0.43 0.09,-0.1 0.21,-0.16 0.36,-0.16 0.14,0 0.25,0.05 0.33,0.14 0.08,0.1 0.12,0.22 0.12,0.37l0 0.1 -0.77 0c0,0.14 0.04,0.24 0.1,0.3 0.06,0.07 0.15,0.11 0.27,0.11 0.12,0 0.24,-0.03 0.35,-0.08l0 0.15c-0.06,0.03 -0.11,0.05 -0.17,0.06 -0.05,0.01 -0.11,0.01 -0.19,0.01zm-0.05 -1.01c-0.08,0 -0.16,0.03 -0.21,0.08 -0.05,0.06 -0.08,0.14 -0.09,0.25l0.58 0c0,-0.11 -0.02,-0.19 -0.07,-0.25 -0.05,-0.06 -0.12,-0.08 -0.21,-0.08z"/>
        <path id="5" class="fil10" d="M-47.73 68.1l0 -0.72c0,-0.09 -0.02,-0.16 -0.06,-0.2 -0.05,-0.05 -0.11,-0.07 -0.2,-0.07 -0.12,0 -0.2,0.03 -0.26,0.09 -0.05,0.07 -0.08,0.17 -0.08,0.32l0 0.58 -0.17 0 0 -1.59 0.17 0 0 0.49c0,0.05 0,0.1 -0.01,0.14l0.01 0c0.04,-0.05 0.08,-0.1 0.15,-0.13 0.06,-0.03 0.13,-0.04 0.21,-0.04 0.13,0 0.24,0.03 0.3,0.09 0.07,0.07 0.11,0.17 0.11,0.31l0 0.73 -0.17 0z"/>
        <path id="6" class="fil10" d="M-46.97 68.1l-0.42 -1.11 0.18 0 0.24 0.66c0.05,0.15 0.08,0.25 0.09,0.3l0.01 0c0.01,-0.04 0.03,-0.11 0.07,-0.22 0.04,-0.12 0.13,-0.36 0.27,-0.74l0.18 0 -0.42 1.11 -0.2 0z"/>
        <path id="7" class="fil10" d="M-45.48 68.1l-0.03 -0.15 -0.01 0c-0.06,0.06 -0.11,0.11 -0.17,0.14 -0.05,0.02 -0.12,0.03 -0.21,0.03 -0.11,0 -0.19,-0.02 -0.26,-0.08 -0.06,-0.06 -0.09,-0.14 -0.09,-0.25 0,-0.22 0.18,-0.34 0.54,-0.35l0.19 -0.01 0 -0.07c0,-0.08 -0.02,-0.15 -0.06,-0.19 -0.03,-0.04 -0.09,-0.06 -0.18,-0.06 -0.09,0 -0.2,0.03 -0.31,0.08l-0.06 -0.13c0.06,-0.03 0.12,-0.05 0.19,-0.07 0.06,-0.02 0.13,-0.02 0.19,-0.02 0.14,0 0.24,0.03 0.3,0.09 0.06,0.05 0.1,0.15 0.1,0.28l0 0.76 -0.13 0zm-0.38 -0.11c0.1,0 0.19,-0.03 0.25,-0.09 0.06,-0.06 0.09,-0.14 0.09,-0.24l0 -0.11 -0.17 0.01c-0.14,0.01 -0.23,0.03 -0.29,0.06 -0.06,0.04 -0.09,0.1 -0.09,0.18 0,0.06 0.01,0.1 0.05,0.14 0.04,0.03 0.09,0.05 0.16,0.05z"/>
        <path id="8" class="fil10" d="M-44.49 66.96c0.05,0 0.09,0.01 0.13,0.02l-0.02 0.15c-0.05,-0.01 -0.09,-0.01 -0.13,-0.01 -0.09,0 -0.16,0.04 -0.23,0.11 -0.06,0.07 -0.1,0.16 -0.1,0.27l0 0.6 -0.16 0 0 -1.11 0.14 0 0.01 0.2 0.01 0c0.04,-0.07 0.09,-0.13 0.15,-0.17 0.06,-0.04 0.13,-0.06 0.2,-0.06z"/>
        <path id="9" class="fil10" d="M-43.5 68.1l-0.04 -0.15 -0.01 0c-0.05,0.06 -0.11,0.11 -0.16,0.14 -0.06,0.02 -0.13,0.03 -0.21,0.03 -0.11,0 -0.2,-0.02 -0.26,-0.08 -0.06,-0.06 -0.1,-0.14 -0.1,-0.25 0,-0.22 0.18,-0.34 0.55,-0.35l0.19 -0.01 0 -0.07c0,-0.08 -0.02,-0.15 -0.06,-0.19 -0.04,-0.04 -0.1,-0.06 -0.18,-0.06 -0.1,0 -0.2,0.03 -0.32,0.08l-0.05 -0.13c0.05,-0.03 0.11,-0.05 0.18,-0.07 0.07,-0.02 0.13,-0.02 0.2,-0.02 0.13,0 0.23,0.03 0.29,0.09 0.07,0.05 0.1,0.15 0.1,0.28l0 0.76 -0.12 0zm-0.39 -0.11c0.11,0 0.19,-0.03 0.25,-0.09 0.06,-0.06 0.09,-0.14 0.09,-0.24l0 -0.11 -0.17 0.01c-0.13,0.01 -0.23,0.03 -0.29,0.06 -0.06,0.04 -0.09,0.1 -0.09,0.18 0,0.06 0.02,0.1 0.06,0.14 0.03,0.03 0.09,0.05 0.15,0.05z"/>
        <path id="10" class="fil10" d="M-42.26 68.1l0 -0.72c0,-0.09 -0.02,-0.16 -0.07,-0.2 -0.04,-0.05 -0.1,-0.07 -0.19,-0.07 -0.12,0 -0.2,0.03 -0.26,0.09 -0.05,0.07 -0.08,0.17 -0.08,0.32l0 0.58 -0.17 0 0 -1.11 0.14 0 0.03 0.15 0 0c0.04,-0.06 0.09,-0.1 0.15,-0.13 0.06,-0.03 0.13,-0.05 0.21,-0.05 0.13,0 0.24,0.04 0.3,0.1 0.07,0.07 0.11,0.17 0.11,0.31l0 0.73 -0.17 0z"/>
       </g>
       <g>
        <circle class="fil15" cx="-64.91" cy="70.44" r="0.69"/>
        <path class="fil10" d="M-62.31 69.64l0.19 0 -0.54 1.49 -0.17 0 -0.54 -1.49 0.18 0 0.35 0.97c0.04,0.11 0.07,0.22 0.09,0.32 0.03,-0.11 0.06,-0.22 0.1,-0.33l0.34 -0.96z"/>
        <path id="1" class="fil10" d="M-61.02 70.57c0,0.19 -0.05,0.33 -0.14,0.43 -0.09,0.1 -0.22,0.16 -0.38,0.16 -0.1,0 -0.19,-0.03 -0.27,-0.08 -0.07,-0.04 -0.13,-0.11 -0.18,-0.2 -0.04,-0.09 -0.06,-0.19 -0.06,-0.31 0,-0.18 0.05,-0.32 0.14,-0.42 0.09,-0.1 0.22,-0.15 0.38,-0.15 0.15,0 0.28,0.05 0.37,0.15 0.09,0.11 0.14,0.25 0.14,0.42zm-0.85 0c0,0.15 0.03,0.26 0.08,0.33 0.06,0.08 0.14,0.11 0.26,0.11 0.11,0 0.19,-0.03 0.25,-0.11 0.06,-0.07 0.08,-0.18 0.08,-0.33 0,-0.14 -0.02,-0.25 -0.08,-0.32 -0.06,-0.07 -0.14,-0.11 -0.26,-0.11 -0.11,0 -0.19,0.04 -0.25,0.11 -0.05,0.07 -0.08,0.18 -0.08,0.32z"/>
        <path id="2" class="fil10" d="M-60.56 70.56c0.03,-0.04 0.08,-0.09 0.14,-0.16l0.36 -0.38 0.2 0 -0.45 0.47 0.48 0.64 -0.2 0 -0.4 -0.52 -0.13 0.11 0 0.41 -0.16 0 0 -1.58 0.16 0 0 0.84c0,0.04 0,0.09 0,0.17l0 0z"/>
        <path id="3" class="fil10" d="M-59.47 70.02l0 0.72c0,0.09 0.02,0.16 0.07,0.21 0.04,0.04 0.1,0.06 0.19,0.06 0.12,0 0.2,-0.03 0.26,-0.09 0.05,-0.07 0.08,-0.17 0.08,-0.32l0 -0.58 0.17 0 0 1.11 -0.14 0 -0.03 -0.14 0 0c-0.04,0.05 -0.09,0.09 -0.15,0.12 -0.06,0.03 -0.13,0.05 -0.21,0.05 -0.14,0 -0.24,-0.04 -0.31,-0.1 -0.06,-0.07 -0.1,-0.17 -0.1,-0.31l0 -0.73 0.17 0z"/>
        <path id="4" class="fil10" d="M-57.58 71.13l0 -0.72c0,-0.09 -0.02,-0.16 -0.06,-0.2 -0.04,-0.05 -0.1,-0.07 -0.19,-0.07 -0.12,0 -0.21,0.03 -0.26,0.1 -0.06,0.06 -0.08,0.16 -0.08,0.31l0 0.58 -0.17 0 0 -1.58 0.17 0 0 0.48c0,0.05 -0.01,0.1 -0.01,0.14l0.01 0c0.03,-0.05 0.08,-0.1 0.14,-0.13 0.06,-0.03 0.13,-0.04 0.21,-0.04 0.14,0 0.24,0.03 0.31,0.09 0.07,0.07 0.1,0.17 0.1,0.31l0 0.73 -0.17 0z"/>
        <path id="5" class="fil10" d="M-56.89 71.13l-0.17 0 0 -1.11 0.17 0 0 1.11zm-0.18 -1.42c0,-0.04 0.01,-0.06 0.03,-0.08 0.02,-0.02 0.04,-0.03 0.07,-0.03 0.02,0 0.05,0.01 0.07,0.03 0.02,0.02 0.03,0.04 0.03,0.08 0,0.04 -0.01,0.07 -0.03,0.09 -0.02,0.02 -0.05,0.03 -0.07,0.03 -0.03,0 -0.05,-0.01 -0.07,-0.03 -0.02,-0.02 -0.03,-0.05 -0.03,-0.09z"/>
        <polygon id="6" class="fil10" points="-56.36,71.13 -56.53,71.13 -56.53,69.55 -56.36,69.55 "/>
        <path id="7" class="fil10" d="M-55.31 71.13l-0.04 -0.15 0 0c-0.06,0.07 -0.12,0.11 -0.17,0.14 -0.06,0.02 -0.13,0.04 -0.21,0.04 -0.11,0 -0.2,-0.03 -0.26,-0.09 -0.06,-0.06 -0.09,-0.14 -0.09,-0.24 0,-0.23 0.18,-0.35 0.54,-0.36l0.19 -0.01 0 -0.07c0,-0.08 -0.02,-0.15 -0.06,-0.19 -0.04,-0.04 -0.1,-0.06 -0.18,-0.06 -0.09,0 -0.2,0.03 -0.32,0.08l-0.05 -0.13c0.06,-0.03 0.12,-0.05 0.18,-0.07 0.07,-0.01 0.13,-0.02 0.2,-0.02 0.13,0 0.23,0.03 0.3,0.09 0.06,0.05 0.09,0.15 0.09,0.28l0 0.76 -0.12 0zm-0.39 -0.11c0.11,0 0.19,-0.03 0.25,-0.09 0.06,-0.06 0.09,-0.14 0.09,-0.24l0 -0.11 -0.17 0.01c-0.13,0.01 -0.23,0.03 -0.29,0.06 -0.06,0.04 -0.09,0.1 -0.09,0.18 0,0.06 0.02,0.11 0.06,0.14 0.04,0.03 0.09,0.05 0.15,0.05z"/>
        <path id="8" class="fil10" d="M-54.08 70.98l0 0c-0.08,0.12 -0.2,0.18 -0.36,0.18 -0.14,0 -0.26,-0.05 -0.34,-0.15 -0.08,-0.1 -0.12,-0.25 -0.12,-0.43 0,-0.19 0.04,-0.33 0.12,-0.43 0.08,-0.1 0.2,-0.15 0.34,-0.15 0.16,0 0.27,0.05 0.35,0.16l0.02 0 -0.01 -0.08 0 -0.08 0 -0.45 0.17 0 0 1.58 -0.14 0 -0.03 -0.15zm-0.33 0.03c0.11,0 0.2,-0.03 0.25,-0.09 0.05,-0.06 0.08,-0.17 0.08,-0.31l0 -0.03c0,-0.16 -0.03,-0.27 -0.08,-0.34 -0.06,-0.07 -0.14,-0.1 -0.26,-0.1 -0.1,0 -0.17,0.04 -0.23,0.11 -0.05,0.08 -0.07,0.19 -0.07,0.33 0,0.14 0.02,0.25 0.07,0.32 0.06,0.08 0.13,0.11 0.24,0.11z"/>
        <path id="9" class="fil10" d="M-53.4 70.02l0 0.72c0,0.09 0.02,0.16 0.07,0.21 0.04,0.04 0.1,0.06 0.19,0.06 0.12,0 0.2,-0.03 0.26,-0.09 0.05,-0.07 0.08,-0.17 0.08,-0.32l0 -0.58 0.17 0 0 1.11 -0.14 0 -0.03 -0.14 -0.01 0c-0.03,0.05 -0.08,0.09 -0.14,0.12 -0.06,0.03 -0.13,0.05 -0.21,0.05 -0.14,0 -0.24,-0.04 -0.31,-0.1 -0.06,-0.07 -0.1,-0.17 -0.1,-0.31l0 -0.73 0.17 0z"/>
        <path id="10" class="fil10" d="M-51.51 70.98l-0.01 0c-0.08,0.12 -0.2,0.18 -0.35,0.18 -0.15,0 -0.26,-0.05 -0.34,-0.15 -0.08,-0.1 -0.12,-0.25 -0.12,-0.43 0,-0.19 0.04,-0.33 0.12,-0.43 0.08,-0.1 0.19,-0.15 0.34,-0.15 0.15,0 0.27,0.05 0.35,0.16l0.01 0 -0.01 -0.08 0 -0.08 0 -0.45 0.17 0 0 1.58 -0.14 0 -0.02 -0.15zm-0.34 0.03c0.12,0 0.2,-0.03 0.25,-0.09 0.05,-0.06 0.08,-0.17 0.08,-0.31l0 -0.03c0,-0.16 -0.03,-0.27 -0.08,-0.34 -0.05,-0.07 -0.14,-0.1 -0.25,-0.1 -0.1,0 -0.18,0.04 -0.23,0.11 -0.05,0.08 -0.08,0.19 -0.08,0.33 0,0.14 0.03,0.25 0.08,0.32 0.05,0.08 0.13,0.11 0.23,0.11z"/>
        <path id="11" class="fil10" d="M-50.52 71.16c-0.16,0 -0.29,-0.06 -0.39,-0.16 -0.1,-0.1 -0.14,-0.24 -0.14,-0.42 0,-0.18 0.04,-0.32 0.13,-0.43 0.09,-0.1 0.21,-0.15 0.36,-0.15 0.14,0 0.25,0.04 0.33,0.13 0.08,0.1 0.12,0.22 0.12,0.37l0 0.11 -0.77 0c0.01,0.13 0.04,0.23 0.1,0.3 0.06,0.06 0.15,0.1 0.27,0.1 0.12,0 0.24,-0.03 0.35,-0.08l0 0.15c-0.05,0.03 -0.11,0.05 -0.16,0.06 -0.06,0.01 -0.12,0.02 -0.2,0.02zm-0.04 -1.02c-0.09,0 -0.17,0.03 -0.22,0.09 -0.05,0.05 -0.08,0.13 -0.09,0.24l0.58 0c0,-0.11 -0.02,-0.19 -0.07,-0.25 -0.05,-0.05 -0.12,-0.08 -0.2,-0.08z"/>
       </g>
       <g>
        <circle class="fil16" cx="-47.55" cy="70.44" r="0.69"/>
        <polygon class="fil10" points="-45.63,71.13 -45.81,71.13 -45.81,69.64 -44.98,69.64 -44.98,69.8 -45.63,69.8 -45.63,70.34 -45.02,70.34 -45.02,70.5 -45.63,70.5 "/>
        <path id="1" class="fil10" d="M-44.24 70c0.05,0 0.09,0 0.13,0.01l-0.02 0.16c-0.05,-0.02 -0.09,-0.02 -0.13,-0.02 -0.09,0 -0.16,0.04 -0.23,0.11 -0.06,0.07 -0.09,0.16 -0.09,0.27l0 0.6 -0.17 0 0 -1.11 0.14 0 0.01 0.2 0.01 0c0.04,-0.07 0.09,-0.13 0.15,-0.17 0.06,-0.04 0.13,-0.05 0.2,-0.05z"/>
        <path id="2" class="fil10" d="M-43.25 71.13l-0.04 -0.15 -0.01 0c-0.05,0.07 -0.11,0.11 -0.16,0.14 -0.06,0.02 -0.13,0.04 -0.21,0.04 -0.11,0 -0.2,-0.03 -0.26,-0.09 -0.06,-0.06 -0.1,-0.14 -0.1,-0.24 0,-0.23 0.18,-0.35 0.55,-0.36l0.19 -0.01 0 -0.07c0,-0.08 -0.02,-0.15 -0.06,-0.19 -0.04,-0.04 -0.1,-0.06 -0.18,-0.06 -0.1,0 -0.2,0.03 -0.32,0.08l-0.05 -0.13c0.05,-0.03 0.11,-0.05 0.18,-0.07 0.07,-0.01 0.13,-0.02 0.2,-0.02 0.13,0 0.23,0.03 0.29,0.09 0.07,0.05 0.1,0.15 0.1,0.28l0 0.76 -0.12 0zm-0.39 -0.11c0.11,0 0.19,-0.03 0.25,-0.09 0.06,-0.06 0.09,-0.14 0.09,-0.24l0 -0.11 -0.17 0.01c-0.13,0.01 -0.23,0.03 -0.29,0.06 -0.06,0.04 -0.09,0.1 -0.09,0.18 0,0.06 0.02,0.11 0.06,0.14 0.03,0.03 0.09,0.05 0.15,0.05z"/>
        <path id="3" class="fil10" d="M-42.01 71.13l0 -0.72c0,-0.09 -0.02,-0.16 -0.07,-0.2 -0.04,-0.05 -0.1,-0.07 -0.19,-0.07 -0.12,0 -0.2,0.03 -0.26,0.09 -0.05,0.07 -0.08,0.17 -0.08,0.32l0 0.58 -0.17 0 0 -1.11 0.14 0 0.03 0.15 0 0c0.04,-0.06 0.09,-0.1 0.15,-0.13 0.06,-0.03 0.13,-0.04 0.21,-0.04 0.13,0 0.24,0.03 0.3,0.09 0.07,0.07 0.11,0.17 0.11,0.31l0 0.73 -0.17 0z"/>
        <path id="4" class="fil10" d="M-41.33 70.56c0.03,-0.04 0.07,-0.09 0.14,-0.16l0.36 -0.38 0.2 0 -0.46 0.47 0.49 0.64 -0.21 0 -0.39 -0.52 -0.13 0.11 0 0.41 -0.17 0 0 -1.58 0.17 0 0 0.84c0,0.04 0,0.09 -0.01,0.17l0.01 0z"/>
       </g>
       <g>
        <circle class="fil5" cx="-37.57" cy="70.44" r="0.69"/>
        <path class="fil10" d="M-36.04 71.53c-0.06,0 -0.11,-0.01 -0.15,-0.03l0 -0.15c0.05,0.02 0.1,0.02 0.15,0.02 0.07,0 0.12,-0.02 0.15,-0.06 0.04,-0.04 0.06,-0.1 0.06,-0.17l0 -1.5 0.17 0 0 1.48c0,0.13 -0.03,0.23 -0.1,0.3 -0.06,0.07 -0.16,0.11 -0.28,0.11z"/>
        <path id="1" class="fil10" d="M-34.32 70.57c0,0.19 -0.05,0.33 -0.14,0.43 -0.09,0.1 -0.22,0.16 -0.38,0.16 -0.1,0 -0.19,-0.03 -0.27,-0.08 -0.08,-0.04 -0.14,-0.11 -0.18,-0.2 -0.04,-0.09 -0.06,-0.19 -0.06,-0.31 0,-0.18 0.04,-0.32 0.14,-0.42 0.09,-0.1 0.21,-0.15 0.38,-0.15 0.15,0 0.28,0.05 0.37,0.15 0.09,0.11 0.14,0.25 0.14,0.42zm-0.86 0c0,0.15 0.03,0.26 0.09,0.33 0.06,0.08 0.14,0.11 0.25,0.11 0.11,0 0.2,-0.03 0.26,-0.11 0.05,-0.07 0.08,-0.18 0.08,-0.33 0,-0.14 -0.03,-0.25 -0.08,-0.32 -0.06,-0.07 -0.15,-0.11 -0.26,-0.11 -0.11,0 -0.19,0.04 -0.25,0.11 -0.06,0.07 -0.09,0.18 -0.09,0.32z"/>
        <path id="2" class="fil10" d="M-33.26 71.13l0 -0.72c0,-0.09 -0.02,-0.16 -0.06,-0.2 -0.04,-0.05 -0.11,-0.07 -0.2,-0.07 -0.11,0 -0.2,0.03 -0.25,0.09 -0.06,0.07 -0.09,0.17 -0.09,0.32l0 0.58 -0.17 0 0 -1.11 0.14 0 0.03 0.15 0.01 0c0.03,-0.06 0.08,-0.1 0.14,-0.13 0.07,-0.03 0.14,-0.04 0.21,-0.04 0.14,0 0.24,0.03 0.31,0.09 0.07,0.07 0.1,0.17 0.1,0.31l0 0.73 -0.17 0z"/>
       </g>
       <g>
        <circle class="fil3" cx="-64.91" cy="73.47" r="0.69"/>
        <polygon class="fil10" points="-62.99,74.17 -63.16,74.17 -63.16,72.67 -62.33,72.67 -62.33,72.83 -62.99,72.83 -62.99,73.37 -62.37,73.37 -62.37,73.53 -62.99,73.53 "/>
        <polygon id="1" class="fil10" points="-61.94,74.17 -62.11,74.17 -62.11,72.58 -61.94,72.58 "/>
        <path id="2" class="fil10" d="M-60.61 73.6c0,0.19 -0.05,0.33 -0.14,0.43 -0.09,0.11 -0.22,0.16 -0.38,0.16 -0.1,0 -0.19,-0.03 -0.27,-0.07 -0.08,-0.05 -0.14,-0.12 -0.18,-0.21 -0.04,-0.08 -0.06,-0.19 -0.06,-0.31 0,-0.18 0.04,-0.32 0.13,-0.42 0.1,-0.1 0.22,-0.15 0.38,-0.15 0.16,0 0.28,0.05 0.38,0.15 0.09,0.11 0.14,0.25 0.14,0.42zm-0.86 0c0,0.15 0.03,0.26 0.09,0.33 0.06,0.08 0.14,0.11 0.25,0.11 0.11,0 0.2,-0.03 0.25,-0.11 0.06,-0.07 0.09,-0.18 0.09,-0.33 0,-0.14 -0.03,-0.24 -0.09,-0.32 -0.05,-0.07 -0.14,-0.11 -0.25,-0.11 -0.11,0 -0.2,0.04 -0.25,0.11 -0.06,0.07 -0.09,0.18 -0.09,0.32z"/>
        <path id="3" class="fil10" d="M-59.81 73.03c0.05,0 0.1,0 0.14,0.01l-0.03 0.16c-0.04,-0.01 -0.08,-0.02 -0.12,-0.02 -0.09,0 -0.17,0.04 -0.23,0.11 -0.07,0.07 -0.1,0.17 -0.1,0.28l0 0.6 -0.17 0 0 -1.12 0.14 0 0.02 0.2 0.01 0c0.04,-0.07 0.09,-0.13 0.15,-0.16 0.06,-0.04 0.12,-0.06 0.19,-0.06z"/>
        <path id="4" class="fil10" d="M-59.03 74.19c-0.17,0 -0.3,-0.05 -0.39,-0.15 -0.1,-0.11 -0.15,-0.25 -0.15,-0.43 0,-0.18 0.05,-0.32 0.13,-0.42 0.09,-0.11 0.21,-0.16 0.36,-0.16 0.14,0 0.25,0.04 0.34,0.13 0.08,0.1 0.12,0.22 0.12,0.37l0 0.11 -0.77 0c0,0.13 0.03,0.23 0.1,0.3 0.06,0.06 0.15,0.1 0.26,0.1 0.12,0 0.24,-0.03 0.36,-0.08l0 0.15c-0.06,0.03 -0.12,0.05 -0.17,0.06 -0.05,0.01 -0.12,0.02 -0.19,0.02zm-0.05 -1.02c-0.09,0 -0.16,0.03 -0.21,0.09 -0.06,0.05 -0.09,0.14 -0.1,0.24l0.59 0c0,-0.11 -0.03,-0.19 -0.07,-0.25 -0.05,-0.05 -0.12,-0.08 -0.21,-0.08z"/>
        <path id="5" class="fil10" d="M-57.57 74.17l0 -0.73c0,-0.09 -0.02,-0.16 -0.06,-0.2 -0.04,-0.05 -0.11,-0.07 -0.19,-0.07 -0.12,0 -0.21,0.03 -0.26,0.09 -0.06,0.07 -0.08,0.17 -0.08,0.32l0 0.59 -0.17 0 0 -1.12 0.13 0 0.03 0.15 0.01 0c0.04,-0.06 0.08,-0.1 0.15,-0.13 0.06,-0.03 0.13,-0.04 0.21,-0.04 0.13,0 0.23,0.03 0.3,0.09 0.07,0.07 0.1,0.17 0.1,0.32l0 0.73 -0.17 0z"/>
        <path id="6" class="fil10" d="M-56.69 74.05c0.03,0 0.06,-0.01 0.09,-0.01 0.03,0 0.05,-0.01 0.07,-0.01l0 0.13c-0.02,0 -0.05,0.01 -0.09,0.02 -0.03,0 -0.06,0.01 -0.09,0.01 -0.22,0 -0.33,-0.12 -0.33,-0.35l0 -0.66 -0.16 0 0 -0.08 0.16 -0.07 0.07 -0.24 0.1 0 0 0.26 0.33 0 0 0.13 -0.33 0 0 0.66c0,0.06 0.02,0.12 0.05,0.15 0.03,0.04 0.08,0.06 0.13,0.06z"/>
        <path id="7" class="fil10" d="M-56.14 74.17l-0.17 0 0 -1.12 0.17 0 0 1.12zm-0.19 -1.43c0,-0.04 0.01,-0.06 0.03,-0.08 0.02,-0.02 0.05,-0.03 0.07,-0.03 0.03,0 0.06,0.01 0.08,0.03 0.02,0.02 0.03,0.05 0.03,0.08 0,0.04 -0.01,0.07 -0.03,0.09 -0.02,0.02 -0.05,0.03 -0.08,0.03 -0.02,0 -0.05,-0.01 -0.07,-0.03 -0.02,-0.02 -0.03,-0.05 -0.03,-0.09z"/>
        <path id="8" class="fil10" d="M-55.02 74.17l0 -0.73c0,-0.09 -0.02,-0.16 -0.06,-0.2 -0.04,-0.05 -0.1,-0.07 -0.19,-0.07 -0.12,0 -0.21,0.03 -0.26,0.09 -0.06,0.07 -0.08,0.17 -0.08,0.32l0 0.59 -0.17 0 0 -1.12 0.14 0 0.02 0.15 0.01 0c0.04,-0.06 0.08,-0.1 0.15,-0.13 0.06,-0.03 0.13,-0.04 0.21,-0.04 0.13,0 0.23,0.03 0.3,0.09 0.07,0.07 0.1,0.17 0.1,0.32l0 0.73 -0.17 0z"/>
       </g>
       <g>
        <circle class="fil17" cx="-52.09" cy="73.47" r="0.69"/>
        <path class="fil10" d="M-49.68 74.17l-0.51 -1.33 -0.01 0c0.01,0.11 0.01,0.23 0.01,0.38l0 0.95 -0.16 0 0 -1.5 0.27 0 0.47 1.23 0.01 0 0.47 -1.23 0.26 0 0 1.5 -0.17 0 0 -0.97c0,-0.11 0,-0.23 0.01,-0.36l0 0 -0.51 1.33 -0.14 0z"/>
        <path id="1" class="fil10" d="M-47.79 74.17l-0.04 -0.16 -0.01 0c-0.05,0.07 -0.11,0.11 -0.16,0.14 -0.06,0.02 -0.13,0.04 -0.21,0.04 -0.11,0 -0.2,-0.03 -0.26,-0.09 -0.07,-0.06 -0.1,-0.14 -0.1,-0.24 0,-0.23 0.18,-0.35 0.55,-0.36l0.19 -0.01 0 -0.07c0,-0.08 -0.02,-0.15 -0.06,-0.19 -0.04,-0.04 -0.1,-0.06 -0.18,-0.06 -0.1,0 -0.2,0.03 -0.32,0.08l-0.05 -0.13c0.05,-0.03 0.11,-0.05 0.18,-0.07 0.07,-0.01 0.13,-0.02 0.2,-0.02 0.13,0 0.23,0.03 0.29,0.09 0.07,0.06 0.1,0.15 0.1,0.28l0 0.77 -0.12 0zm-0.39 -0.12c0.11,0 0.19,-0.03 0.25,-0.09 0.06,-0.06 0.09,-0.14 0.09,-0.24l0 -0.1 -0.17 0c-0.13,0.01 -0.23,0.03 -0.29,0.07 -0.06,0.03 -0.09,0.09 -0.09,0.17 0,0.06 0.02,0.11 0.06,0.14 0.03,0.03 0.09,0.05 0.15,0.05z"/>
        <path id="2" class="fil10" d="M-46.81 73.03c0.05,0 0.09,0 0.13,0.01l-0.02 0.16c-0.05,-0.01 -0.09,-0.02 -0.12,-0.02 -0.09,0 -0.17,0.04 -0.23,0.11 -0.07,0.07 -0.1,0.17 -0.1,0.28l0 0.6 -0.17 0 0 -1.12 0.14 0 0.02 0.2 0.01 0c0.04,-0.07 0.09,-0.13 0.15,-0.16 0.06,-0.04 0.12,-0.06 0.19,-0.06z"/>
        <path id="3" class="fil10" d="M-46.06 74.19c-0.16,0 -0.29,-0.05 -0.38,-0.15 -0.09,-0.1 -0.13,-0.24 -0.13,-0.43 0,-0.18 0.04,-0.33 0.13,-0.43 0.09,-0.1 0.22,-0.15 0.39,-0.15 0.05,0 0.11,0 0.16,0.01 0.06,0.01 0.1,0.03 0.13,0.04l-0.05 0.15c-0.04,-0.02 -0.08,-0.03 -0.13,-0.04 -0.04,-0.01 -0.08,-0.01 -0.11,-0.01 -0.23,0 -0.35,0.14 -0.35,0.43 0,0.14 0.03,0.24 0.09,0.32 0.05,0.07 0.14,0.11 0.24,0.11 0.1,0 0.19,-0.02 0.29,-0.06l0 0.15c-0.07,0.04 -0.17,0.06 -0.28,0.06z"/>
       </g>
      </g>
     </g>
    </g>
    <path class="fil18" d="M28.36 10.29l50.75 0c5.33,0 9.69,4.36 9.69,9.68l0 50.76c0,5.33 -4.36,9.69 -9.69,9.69l-50.75 0c-5.33,0 -9.69,-4.36 -9.69,-9.69l0 -50.76c0,-5.32 4.36,-9.68 9.69,-9.68z"/>
    <path class="fil19" d="M35.64 97.05l-0.78 0 -1.38 -4.58c-0.07,-0.2 -0.14,-0.46 -0.22,-0.77 -0.08,-0.31 -0.12,-0.49 -0.13,-0.55 -0.06,0.41 -0.17,0.86 -0.32,1.35l-1.34 4.55 -0.79 0 -1.81 -6.84 0.84 0 1.08 4.22c0.15,0.6 0.26,1.13 0.32,1.61 0.09,-0.57 0.21,-1.13 0.38,-1.67l1.22 -4.16 0.84 0 1.29 4.19c0.15,0.49 0.28,1.03 0.38,1.64 0.06,-0.44 0.17,-0.98 0.34,-1.62l1.07 -4.21 0.84 0 -1.83 6.84z"/>
    <path id="1" class="fil19" d="M41.93 97.05l0 -3.32c0,-0.42 -0.09,-0.73 -0.28,-0.93 -0.19,-0.21 -0.49,-0.31 -0.9,-0.31 -0.54,0 -0.93,0.15 -1.18,0.44 -0.24,0.29 -0.37,0.77 -0.37,1.44l0 2.68 -0.77 0 0 -7.28 0.77 0 0 2.2c0,0.27 -0.01,0.49 -0.04,0.66l0.05 0c0.15,-0.24 0.37,-0.44 0.65,-0.58 0.29,-0.14 0.61,-0.21 0.97,-0.21 0.63,0 1.1,0.15 1.41,0.45 0.31,0.29 0.47,0.77 0.47,1.41l0 3.35 -0.78 0z"/>
    <path id="2" class="fil19" d="M47.45 97.05l-0.15 -0.73 -0.04 0c-0.26,0.32 -0.51,0.54 -0.76,0.65 -0.26,0.12 -0.57,0.17 -0.95,0.17 -0.51,0 -0.91,-0.13 -1.2,-0.39 -0.29,-0.26 -0.43,-0.63 -0.43,-1.12 0,-1.04 0.83,-1.58 2.48,-1.63l0.87 -0.03 0 -0.31c0,-0.4 -0.09,-0.7 -0.26,-0.89 -0.17,-0.19 -0.45,-0.29 -0.83,-0.29 -0.43,0 -0.91,0.13 -1.45,0.39l-0.24 -0.59c0.26,-0.14 0.53,-0.25 0.83,-0.32 0.3,-0.08 0.61,-0.12 0.91,-0.12 0.61,0 1.06,0.13 1.36,0.41 0.29,0.27 0.44,0.7 0.44,1.3l0 3.5 -0.58 0zm-1.75 -0.55c0.48,0 0.86,-0.13 1.14,-0.4 0.27,-0.26 0.41,-0.63 0.41,-1.11l0 -0.46 -0.78 0.03c-0.61,0.02 -1.06,0.12 -1.33,0.29 -0.27,0.17 -0.41,0.43 -0.41,0.79 0,0.28 0.09,0.5 0.26,0.64 0.17,0.15 0.4,0.22 0.71,0.22z"/>
    <path id="3" class="fil19" d="M51.28 96.5c0.14,0 0.27,-0.01 0.4,-0.03 0.13,-0.02 0.23,-0.04 0.3,-0.06l0 0.59c-0.08,0.04 -0.2,0.08 -0.37,0.1 -0.16,0.03 -0.31,0.04 -0.44,0.04 -0.99,0 -1.49,-0.52 -1.49,-1.56l0 -3.05 -0.73 0 0 -0.37 0.73 -0.33 0.33 -1.09 0.45 0 0 1.19 1.49 0 0 0.6 -1.49 0 0 3.01c0,0.31 0.07,0.55 0.22,0.71 0.15,0.17 0.35,0.25 0.6,0.25z"/>
    <path id="4" class="fil19" d="M57.15 96.5c0.14,0 0.27,-0.01 0.4,-0.03 0.12,-0.02 0.22,-0.04 0.3,-0.06l0 0.59c-0.09,0.04 -0.21,0.08 -0.37,0.1 -0.17,0.03 -0.31,0.04 -0.44,0.04 -1,0 -1.49,-0.52 -1.49,-1.56l0 -3.05 -0.73 0 0 -0.37 0.73 -0.33 0.33 -1.09 0.45 0 0 1.19 1.48 0 0 0.6 -1.48 0 0 3.01c0,0.31 0.07,0.55 0.22,0.71 0.14,0.17 0.34,0.25 0.6,0.25z"/>
    <path id="5" class="fil19" d="M59.65 97.05l-0.78 0 0 -5.12 0.78 0 0 5.12zm-0.84 -6.52c0,-0.17 0.04,-0.3 0.13,-0.39 0.09,-0.08 0.2,-0.12 0.33,-0.12 0.12,0 0.23,0.04 0.32,0.13 0.09,0.08 0.13,0.21 0.13,0.38 0,0.18 -0.04,0.31 -0.13,0.39 -0.09,0.09 -0.2,0.13 -0.32,0.13 -0.13,0 -0.24,-0.04 -0.33,-0.13 -0.09,-0.08 -0.13,-0.21 -0.13,-0.39z"/>
    <path id="6" class="fil19" d="M67.82 97.05l0 -3.34c0,-0.4 -0.08,-0.71 -0.26,-0.91 -0.17,-0.21 -0.44,-0.31 -0.81,-0.31 -0.48,0 -0.84,0.14 -1.07,0.42 -0.23,0.27 -0.35,0.7 -0.35,1.28l0 2.86 -0.77 0 0 -3.34c0,-0.4 -0.09,-0.71 -0.26,-0.91 -0.18,-0.21 -0.45,-0.31 -0.82,-0.31 -0.49,0 -0.84,0.14 -1.07,0.44 -0.23,0.29 -0.34,0.77 -0.34,1.43l0 2.69 -0.77 0 0 -5.12 0.63 0 0.12 0.69 0.04 0c0.15,-0.24 0.35,-0.44 0.62,-0.58 0.27,-0.14 0.56,-0.21 0.9,-0.21 0.79,0 1.32,0.29 1.57,0.87l0.03 0c0.15,-0.27 0.38,-0.48 0.67,-0.64 0.29,-0.15 0.62,-0.23 0.99,-0.23 0.58,0 1.01,0.15 1.3,0.45 0.29,0.29 0.43,0.77 0.43,1.42l0 3.35 -0.78 0z"/>
    <path id="7" class="fil19" d="M72.36 97.14c-0.75,0 -1.35,-0.23 -1.79,-0.69 -0.44,-0.46 -0.65,-1.1 -0.65,-1.92 0,-0.83 0.2,-1.49 0.61,-1.97 0.4,-0.49 0.95,-0.73 1.63,-0.73 0.65,0 1.15,0.21 1.53,0.63 0.37,0.43 0.56,0.98 0.56,1.67l0 0.49 -3.53 0c0.02,0.61 0.17,1.06 0.46,1.38 0.28,0.31 0.69,0.46 1.21,0.46 0.55,0 1.1,-0.11 1.64,-0.34l0 0.69c-0.27,0.12 -0.53,0.2 -0.78,0.26 -0.24,0.05 -0.54,0.07 -0.89,0.07zm-0.21 -4.66c-0.41,0 -0.73,0.13 -0.98,0.4 -0.24,0.27 -0.39,0.64 -0.43,1.11l2.68 0c0,-0.49 -0.11,-0.86 -0.33,-1.12 -0.22,-0.26 -0.53,-0.39 -0.94,-0.39z"/>
    <path id="8" class="fil19" d="M76.1 95.16l0 -0.25c0,-0.37 0.05,-0.67 0.17,-0.9 0.11,-0.24 0.32,-0.48 0.62,-0.75 0.43,-0.36 0.69,-0.63 0.8,-0.8 0.11,-0.19 0.17,-0.4 0.17,-0.66 0,-0.32 -0.1,-0.56 -0.31,-0.73 -0.2,-0.18 -0.49,-0.27 -0.88,-0.27 -0.24,0 -0.48,0.03 -0.72,0.09 -0.23,0.06 -0.5,0.16 -0.8,0.32l-0.28 -0.63c0.59,-0.31 1.21,-0.46 1.85,-0.46 0.6,0 1.06,0.14 1.39,0.43 0.33,0.3 0.49,0.71 0.49,1.24 0,0.23 -0.03,0.43 -0.09,0.6 -0.06,0.18 -0.15,0.34 -0.27,0.49 -0.11,0.16 -0.37,0.41 -0.76,0.75 -0.32,0.27 -0.52,0.49 -0.63,0.67 -0.1,0.18 -0.15,0.41 -0.15,0.71l0 0.15 -0.6 0zm-0.23 1.39c0,-0.42 0.19,-0.63 0.56,-0.63 0.18,0 0.32,0.05 0.42,0.16 0.1,0.11 0.15,0.27 0.15,0.47 0,0.2 -0.05,0.36 -0.15,0.47 -0.1,0.11 -0.24,0.16 -0.42,0.16 -0.16,0 -0.29,-0.05 -0.4,-0.15 -0.11,-0.09 -0.16,-0.25 -0.16,-0.48z"/>
   </g>
   <rect class="fil18" width="107.47" height="107.47"/>
  </g>
 </g>
</svg>
